<?xml version="1.0" encoding="utf-8" ?>
<svg baseProfile="full" height="92.55521557414906" version="1.1" width="652.5702413382012" xmlns="http://www.w3.org/2000/svg" xmlns:ev="http://www.w3.org/2001/xml-events" xmlns:xlink="http://www.w3.org/1999/xlink"><defs /><rect fill="white" height="92.55521557414906" width="652.5702413382012" x="0" y="0" /><path d="M25,55.74522046865897 m28.13223876953125,-10.976387786865235 l0.15871784687042237,-0.808280086517334 -0.024777629971504213,-0.5604147434234619 l-0.2999628782272339,-0.477839994430542 -1.2386733055114747,-0.29143924713134767 l-1.5047792434692382,0.4423853874206543 -1.7392385482788086,1.5685659408569337 l-2.2326305389404295,2.070909118652344 -2.4953586578369142,2.7766237258911133 l-2.126142120361328,2.5439258575439454 -1.4052103996276855,2.7476486206054687 l-1.5339118003845216,1.5528693199157715 -0.7705569744110108,1.7842500686645508 l-0.15952024459838868,1.0385835647583008 0.001961640827357769,0.3826466083526611 l0.7005881786346435,-0.10727620124816895 1.7823148727416993,-0.893949031829834 m16.061668395996094,-10.210507202148438 l-0.6129047393798828,-0.46192660331726076 -0.24143698215484619,0.04062473773956299 l-0.29221196174621583,0.04495058059692383 -1.055461311340332,0.00568598210811615 l-0.989569091796875,0.8821978569030762 -1.0955758094787598,1.1144668579101562 l-0.8855030059814453,1.6556943893432616 -0.8286653518676758,1.6248182296752929 l-0.032221242785453796,1.1807040214538573 0.28673405647277833,1.0052548408508302 l0.404373025894165,0.29817235469818115 1.142479133605957,-0.10952938795089721 l1.213735580444336,-0.9834221839904785 1.565976333618164,-1.5225448608398438 l1.9717567443847657,-1.233586311340332 m9.204820251464843,0.05231788158416748 l-1.0845960617065429,0.35344443321228025 -0.5739089012145996,0.5015661716461182 l-0.8102282524108887,1.1361542701721192 -1.6925281524658202,1.4194464683532715 l-0.9411977767944336,1.0142070770263671 -0.6371171951293946,0.494111156463623 l0.16272964477539062,0.11793873310089112 0.41333441734313964,-0.004291887953877449 l0.7608089447021484,-0.9362300872802735 1.419844150543213,-1.682621383666992 l1.8600996017456055,-1.7932426452636718 2.1197364807128904,-1.400988483428955 l1.8962984085083008,-1.0293060302734376 1.1429219245910645,-0.30022642612457273 l0.6755460739135742,0.09176851511001587 -0.049319878220558167,0.34074404239654543 l-0.1281738042831421,1.0920605659484863 -0.7995338439941406,1.525935745239258 l-0.8205947875976562,1.8822046279907227 -0.7276527404785156,1.5761062622070312 l-0.6282360553741455,0.5763702392578125 0.603757905960083,0.6587500095367431 l0.424149227142334,-0.246840763092041 1.272758960723877,-0.7514669895172119 l1.9757890701293945,-1.453817367553711 1.7659934997558593,-2.146368408203125 l2.2138126373291014,-1.6411453247070313 1.9642400741577148,-1.063291645050049 l0.9491979598999023,-0.537800407409668 0.7809547901153564,0.09032953381538392 l0.3260683536529541,-0.013499322533607482 0.18751070499420167,0.533854866027832 l-0.24602885246276857,0.7827767372131348 -0.3552870750427246,1.2389430046081542 l-0.7630443572998047,1.6397693634033204 -0.44291486740112307,1.55948486328125 l-0.4713917255401611,0.9350321769714356 -0.03986057043075562,1.1106080055236816 l-0.05898128747940064,0.07307291030883789 0.3984787702560425,-0.23870472908020018 m10.91290283203125,-10.674862670898438 l-0.048866093158721924,0.1012919306755066 -0.043153977394104,0.021026527881622313 l0.06476460695266724,0.026596829295158386 -0.07893544435501099,-0.17646141052246095 l0.3537980318069458,0.4495246887207031 -0.32512779235839845,0.6805063247680664 l-0.08886938095092774,1.608316421508789 -0.7132298469543457,1.4803352355957031 l-1.0791160583496093,1.3887399673461913 -1.0845614433288575,1.5430000305175782 l-0.7952991485595703,1.4410504341125487 -0.9160751342773438,0.5555195808410645 l-0.09084624648094178,0.0832349956035614 0.27432570457458494,-0.008166734874248505 l0.422335147857666,-0.15132356882095338 0.5159564018249512,-1.3580311775207519 l1.6433370590209961,-1.0221429824829102 1.7860427856445313,-1.44633207321167 l1.4925371170043946,-1.246952438354492 1.3737574577331544,-0.749726676940918 l1.1663541793823242,-0.14037165641784669 0.787548828125,0.12831915616989137 l0.4685972213745117,0.48581972122192385 0.428806734085083,1.1427743911743165 l0.058123964071273806,1.576645851135254 -0.19117294549942015,1.77362003326416 l0.16947709321975707,2.223110580444336 -0.01809815168380737,1.5162440299987794 l0.3360903739929199,0.8107421875 0.6906979084014893,0.5467104911804199 l0.9077556610107422,-0.0745841920375824 m27.573147583007813,-20.219363403320312 l-0.04110544323921204,0.08019694685935974 0.11101748943328857,0.29117417335510254 l-0.7586821556091309,0.29677410125732423 -0.7856797218322754,1.2189780235290528 l-1.4244682312011718,1.7284278869628906 -0.5480577945709229,2.9911567687988283 l-0.8656005859375,2.6959815979003907 -0.8629186630249024,2.616041374206543 l-0.8592368125915527,2.4716264724731447 -0.7162827968597412,2.3226842880249023 l-1.155281162261963,1.4651100158691406 -0.29437894821166993,1.345068359375 l-0.020917865633964538,0.456786060333252 0.12296922206878662,-0.3174441337585449 l0.851872444152832,-1.11395320892334 0.8177319526672363,-1.383032989501953 m-5.688891983032226,-7.589082336425781 l-0.0455410897731781,-0.12184685468673706 0.2604321002960205,-0.7601635932922364 l1.2356962203979491,-0.7768783569335938 1.357225513458252,-1.1323877334594727 l2.459284782409668,-0.26665492057800294 1.878481101989746,-0.21196792125701905 l1.6494556427001954,0.3133188486099243 1.2228097915649414,0.5843794822692872 l1.0429912567138673,0.6646109104156495 0.5666928768157959,0.3861422061920166 l-0.04594404995441437,-0.17060441970825196 0.02802523970603943,0.09281367659568787 l0.06916102170944213,0.22899656295776366 -0.4263021945953369,-0.3037905693054199 l0.400180721282959,0.21475837230682374 -0.16142697334289552,-0.05220069289207459 m46.698760986328125,-11.95660858154297 l-0.4841001033782959,-0.5712312698364258 -0.8527956962585449,-0.8903957366943359 l-0.39040675163269045,-0.6681154251098633 -0.8392879486083984,-0.4268235206604004 l-1.0426344871520996,-0.21089260578155516 -1.2218984603881835,0.07792860269546509 l-1.4462885856628418,0.7228403091430664 -1.2917692184448242,1.198659896850586 l-1.7798141479492187,1.735313606262207 -1.2833389282226562,2.548019599914551 l-1.4867659568786622,3.057641792297363 -1.4555727005004884,3.495408630371094 l-1.6503223419189452,3.777853012084961 -1.1814834594726562,4.380135345458984 l-1.5663854598999023,3.718164825439453 -0.8679885864257812,3.6098045349121093 l-0.5462523460388183,2.611247253417969 -0.24645488262176513,2.0641212463378906 l-0.5192242622375488,0.8298263549804688 -0.26361539363861086,0.44623823165893556 m-1.988823699951172,-10.720233154296874 l0.2325453281402588,-0.1272524118423462 0.7889166355133057,-0.15320615768432616 l1.863581085205078,-0.24801180362701417 1.7442029953002929,-0.5950450897216797 l2.196282386779785,-0.6040863990783691 1.7406366348266602,-0.9818716049194336 l2.282741355895996,-0.8188446044921875 2.1192367553710936,-1.1923646926879883 m13.057711791992187,-14.85351104736328 l0.025840219855308533,0.053069287538528444 -0.19267719984054565,-0.16016902923583984 l-0.19733017683029175,0.19607852697372435 -0.024478241801261902,0.5625941753387451 l-0.07765954136848449,1.585708236694336 -0.863398265838623,1.3939423561096191 l-0.16270277500152588,1.9904541015625 -0.5387106895446777,2.4659954071044923 l-0.23458001613616944,2.6734189987182617 -1.0622369766235351,2.467194366455078 l-0.6502466201782227,3.030756187438965 -1.1227444648742675,2.455588150024414 l-1.0594480514526368,1.8172620773315429 -0.5471616268157959,1.0206900596618653 l0.08021388053894044,0.4963359355926514 -0.30357658863067627,-0.551352071762085 l0.3417612314224243,-0.0317052036523819 0.7846034049987793,-1.7068525314331056 l0.7963372230529785,-1.971213150024414 1.4012890815734864,-2.2253910064697267 l1.3015233993530273,-2.271763229370117 1.8181680679321288,-1.1542024612426758 l1.5350303649902344,-1.2089667320251465 2.233197021484375,-0.15639687776565553 l1.2444687843322755,-0.06316860914230346 1.3094038009643554,1.1235637664794922 l0.15855424404144286,1.2623606681823731 -0.3160698413848877,1.7443534851074218 l-0.4722179889678955,2.205875205993652 -0.5298370361328125,1.758188247680664 l-0.5279642105102539,1.2703808784484862 0.16495611667633056,1.1535941123962403 m8.544454956054688,-9.723509216308594 l-0.39879372119903567,0.06549596786499023 -0.17755579948425293,0.24131348133087158 l-0.6290909767150878,0.9828037261962891 -0.958804988861084,1.5411754608154298 l-0.7361364841461182,1.9626140594482422 -0.24351248741149903,2.0425861358642576 l0.28575375080108645,1.5195160865783692 0.3396682500839233,0.49715576171875 l0.7147467136383057,0.2124880075454712 1.454655647277832,-0.6103816032409668 l1.388648223876953,-1.3072101593017578 2.0225332260131834,-1.8050559997558593 l1.841571044921875,-1.951729965209961 1.1270784378051757,-2.265364074707031 l0.641909122467041,-1.2952460289001464 0.41520061492919924,-0.5253729343414306 l-0.3965312004089355,-0.2524573802947998 -0.10395580530166626,0.1354504942893982 l-0.2188568115234375,0.8474803924560547 -1.1009668350219726,1.3873549461364747 l-0.9182750701904296,1.534489631652832 -0.42951149940490724,1.7012496948242188 l-0.49617629051208495,1.2052302360534668 0.0877962589263916,1.0528316497802734 l0.5112098693847656,0.6455889701843261 0.5798494815826416,-0.14467923641204833 l1.1235643386840821,-0.3598909378051758 1.363131332397461,-1.1423216819763184 m9.388934326171874,-6.84789810180664 l0.2385310411453247,-0.21934378147125244 -0.12840508222579955,-0.23189060688018798 l-0.0016989815980196,0.006138788908720017 -0.34685606956481935,-0.14391582012176513 l-0.5431584358215332,0.10817333459854125 -0.542717695236206,1.0126516342163085 l-0.6939411163330078,1.2097169876098632 -0.8169610977172852,1.180814266204834 l-0.031579628586769104,0.7358193397521973 0.6163203239440918,0.8041230201721191 l1.1501792907714843,0.5681604385375977 1.8211360931396485,0.5509266376495361 l1.6770824432373046,0.3808757305145264 1.612856674194336,0.3242656707763672 l0.9357605934143066,0.4340562343597412 0.10304676294326783,0.6229986667633056 l-0.3810864448547363,0.6547295570373535 -1.1607523918151856,1.1026239395141602 l-2.7399824142456053,1.211267852783203 -1.7481246948242188,1.3306814193725587 l-1.4858959197998047,0.8225767135620117 -1.4585322380065917,0.22886281013488768 l-0.6645969390869141,-0.3999516010284424 0.5681594848632813,-0.3411693811416626 m47.574041748046874,-13.064459228515625 l0.8333746910095214,0.3677452802658081 0.10637825727462769,0.14949488639831543 l-0.04704376459121704,0.4559601306915283 -0.4833668231964111,1.0404607772827148 l-1.3853580474853515,1.7882514953613282 -1.4526996612548828,2.175104522705078 l-1.8057266235351563,1.797694206237793 -0.7696185111999512,1.5947534561157226 l-0.586880874633789,0.3353627920150757 0.26247367858886717,0.27973618507385256 l0.6668987274169922,-0.34296584129333496 1.6269432067871095,-0.882234001159668 l2.0797842025756834,-1.5411903381347656 2.2775943756103514,-1.4961124420166017 l1.8213285446166991,-1.6945186614990235 1.79892578125,-0.8469124794006347 l0.5181749343872071,-0.03128873705863953 0.3487048625946045,0.23251104354858398 l0.2183695077896118,1.182918167114258 -0.32321872711181643,1.3578864097595216 l-0.4360517501831055,1.887689208984375 -0.7152381896972656,1.015108013153076 l-0.05582545399665832,1.1775141716003419 0.07516053318977356,0.12451651096343994 l0.5119865417480469,0.0022776812314987183 1.9382648468017578,-0.27302212715148927 l2.112407684326172,-1.1124654769897462 1.9294830322265626,-1.8514537811279297 l1.5054779052734375,-1.832206916809082 1.0851890563964843,-1.5299929618835448 l0.6387819766998291,-0.3907487392425537 0.034685415029525754,-0.0892432987689972 l0.16498465538024903,0.26459441184997556 -0.1745309591293335,0.3187717914581299 l0.047119241952896115,1.2592218399047852 0.08375087380409241,1.355585479736328 l0.8038375854492188,1.0465182304382323 1.3321166038513184,0.5007630348205566 l1.5994361877441405,-0.0636756420135498 1.6876243591308593,-0.5975101470947266 l1.6791183471679687,-1.3539613723754882 1.6680118560791015,-1.7294483184814453 l1.469799518585205,-2.1449516296386717 1.3500913619995116,-1.5646818161010743 l0.8095123291015625,-1.08427734375 -0.2868688106536865,-0.621461009979248 l-0.02861679196357727,0.189838182926178 0.10272263288497925,0.2572737216949463 l-0.4968313217163086,1.022911834716797 -0.3405021667480469,2.310979461669922 l0.20282368659973143,2.887527275085449 -0.1208418607711792,2.093847465515137 l0.5834003448486328,2.2905860900878907 0.6310868740081788,1.767217254638672 l0.04149698615074158,0.5963923931121826 0.47282915115356444,0.5470814228057861 m1.7139509201049805,-12.968890380859374 l-0.5138876914978028,-0.16483957767486573 0.313336706161499,-0.24008898735046386 l0.5460262298583984,-0.20710484981536864 1.5892580032348633,-0.5587587833404541 m9.015705108642578,-1.8379993438720703 l0.03289666771888733,0.0028492772951722147 -0.8929508209228516,0.24278526306152343 l-0.946382713317871,1.2341903686523437 -1.2929587364196777,1.5319902420043945 l-1.8542997360229492,1.6733322143554688 -1.0743661880493165,1.8366098403930664 l-0.22670912742614746,1.9197959899902344 -0.2731623649597168,1.2840514183044434 l0.5511637687683105,1.285674476623535 1.4774494171142578,1.2763094902038574 l1.3957027435302733,0.6421513080596923 0.8334606170654297,0.4468693256378174 l1.434932327270508,0.11787437200546265 1.167022705078125,-0.26652071475982664 l1.3077974319458008,-0.3432309627532959 1.102377986907959,-0.7289790153503418 m3.525182342529297,-11.605716705322266 l-0.4603691577911377,-0.22003366947174072 0.029655951261520385,0.194274377822876 l0.14181303977966309,0.0723268985748291 -0.5253611087799073,0.49647183418273927 l0.10344043970108033,1.0261281967163085 0.1342381238937378,1.76361026763916 l-0.46890759468078613,1.8180187225341797 -0.603580093383789,1.709348487854004 l-0.3256064891815186,1.3091001510620117 -0.13395415544509887,1.245363712310791 l0.14521329402923583,0.8923924446105957 0.7073223114013671,0.5986087322235107 l1.003200626373291,0.14529460668563843 0.07559647560119628,-0.6897119998931884 l0.7660913467407227,-0.9617136955261231 1.0098861694335937,-1.2762876510620118 l1.019249153137207,-2.1760339736938477 1.5792486190795898,-2.0000417709350584 l0.9806469917297364,-1.6185014724731446 0.964018440246582,-0.5373589515686035 l0.3851421117782593,-0.16551460027694703 -0.17283855676651,0.35802040100097654 l-0.20684657096862794,1.023775863647461 -0.5077266693115234,2.0418926239013673 l-0.12557905912399292,2.1522823333740235 -0.51024489402771,1.684454345703125 l0.24814155101776122,1.5170475006103517 0.5893425464630127,0.5319761276245117 l1.1684471130371095,0.2979668378829956 1.4338841438293457,-0.6077147006988526 l1.9661525726318358,-1.2100393295288085 2.3037397384643556,-2.0230487823486327 l1.9989030838012696,-2.37573356628418 1.6539323806762696,-2.9810087203979494 l1.4135476112365724,-2.7368831634521484 0.5388637542724609,-2.333509635925293 l0.19726746082305907,-1.1957479476928712 -0.4164421081542969,-0.4460422992706299 l-0.026890692114830018,0.05095369815826416 -0.9683928489685059,0.8626997947692872 l-0.8322360038757324,1.6960769653320313 -1.0377918243408204,1.8877050399780273 l-0.5122673511505127,2.586374282836914 -0.423028564453125,2.697103500366211 l-0.09646660685539246,2.13906307220459 0.8028108596801757,2.11704044342041 l0.8427631378173828,1.5627522468566895 1.0461989402770997,0.7214810848236084 m10.756455230712891,-9.465630340576173 l-0.02596350908279419,0.12172127962112426 0.20949883460998536,0.08945533633232117 l-0.5663557529449463,-0.3184796333312988 -0.17807543277740479,0.6020058631896973 l-0.8699827194213867,1.1778867721557618 -0.7031344413757324,1.3508872032165526 l-0.25765070915222166,1.3623315811157226 1.5755778312683106,1.7063491821289063 l1.4405147552490234,0.4288301467895508 2.975157928466797,-0.32825019359588625 l4.1488079071044925,-1.211294937133789 3.745371627807617,-2.013138771057129 l1.3669824600219727,-2.414718246459961 0.32356963157653806,-2.112333297729492 l-1.4398414611816406,-2.594558525085449 -1.9014488220214845,-1.2258665084838867 l-3.421055221557617,-0.03866502642631531 -4.066716003417969,0.7811315059661865 l-2.7798179626464843,2.1893165588378904 -1.4129531860351563,2.0439165115356444 l0.4491143226623535,1.9187833786010742 m19.167381286621094,-1.1737194061279297 l0.2478180408477783,0.07062088847160339 0.07684525847434998,-0.18144609928131103 l-0.5458343505859375,-0.2140406608581543 0.0889889121055603,0.15090034008026124 l-0.4132689952850342,1.0245575904846191 -0.35448517799377444,1.1861934661865234 l0.3032792568206787,1.3781904220581054 -0.5460691452026367,0.9182921409606933 l0.7868798255920411,0.9826692581176758 0.548917007446289,0.20137529373168944 l0.32636752128601076,0.01435672789812088 0.7629564285278321,-0.4172213554382324 l1.7429998397827149,-1.157498836517334 2.0426368713378906,-1.5962955474853515 l2.2530784606933594,-1.7361127853393554 2.048162651062012,-1.0620155334472656 l0.6067904949188232,-0.5804890632629395 -0.1330185890197754,0.16953251361846924 l-1.1698426246643066,0.9446844100952149 -1.70120849609375,2.3215274810791016 l-0.7673003673553467,2.5726537704467773 0.17563948631286622,2.0963809967041014 l0.8913463592529297,1.5412672996520995 1.5710838317871094,0.5783932685852051 l1.707099723815918,-0.3342165946960449 2.83050422668457,-0.8437642097473145 l2.4151279449462892,-1.3918073654174805 2.3253150939941407,-2.2105991363525392 m1.8467782974243163,-3.9190658569335937 l-0.6719414710998535,-0.35079500675201414 -0.12810325622558594,0.09267274141311646 l-1.2294111251831055,-0.16740899085998534 -1.1944326400756835,0.7719708442687988 l-1.552883243560791,1.373095703125 -1.0810198783874512,1.9429779052734375 l-0.8244338989257812,2.0801151275634764 -0.10008035898208618,1.7853906631469727 l1.064378547668457,0.9388479232788086 1.7752498626708983,0.43921408653259275 l2.089788246154785,-0.3748429298400879 2.0600906372070313,-1.059421443939209 l1.6530593872070312,-1.5170594215393067 0.6143799304962159,-1.513400936126709 l0.8534159660339355,-1.4860478401184083 -0.935328197479248,-1.4343389511108398 l-0.5494892597198486,-0.9899979591369629 -0.7703254222869873,-0.5837796211242676 l-0.7405964851379394,-0.1124112606048584 0.08378902077674866,0.45308742523193357 l0.14571547508239746,0.814488410949707 1.4391010284423829,1.1611317634582519 l1.4595129013061523,1.3343307495117187 1.6359912872314453,0.9418630599975586 l1.5868496894836426,0.8150344848632812 0.6425114631652832,0.6424992561340332 l0.15104835033416747,0.9483729362487793 -0.06873995065689087,0.8924588203430176 l-1.3249625205993651,0.5933628559112549 -1.1568439483642579,0.29779324531555174 l-0.4621585845947266,0.20019154548645018 -0.1387932777404785,-0.21133878231048583 l-0.18997790813446044,0.2738033294677734 0.2041799545288086,-0.40035128593444824 l-0.04639039635658264,0.11003111600875855 -0.01328306645154953,-0.5300077438354492 l0.12751210927963258,-0.5851516723632812 0.5797618865966797,-0.8979939460754395 l1.622443389892578,-1.3679398536682128 1.7163431167602539,-1.515402603149414 l2.433760643005371,-1.4697538375854493 2.425881195068359,-0.9135920524597168 l2.040999984741211,-0.4837545871734619 0.676990556716919,0.1773030638694763 l0.5663251399993896,0.6881002426147461 -0.40579872131347655,0.9139423370361328 l-0.35384225845336914,2.0219120025634765 -0.42375984191894533,1.3496610641479492 l-0.7933387279510498,1.4520424842834472 -0.07412178516387939,0.7991532802581787 l0.508647346496582,0.7020736694335937 m15.3846435546875,-6.877536773681641 l0.09261757135391235,0.047920200228691104 0.298160195350647,0.13288111686706544 l-0.5918478965759277,-0.05644683837890625 -0.7534661293029785,0.11112151145935059 l-1.0857179641723633,0.22072725296020507 -0.31911864280700686,0.47579035758972166 l-0.5412401676177978,0.9069217681884766 -0.3473986625671387,0.5898364067077637 l-0.13623892068862914,0.6621883392333985 0.04587741196155548,0.31110641956329343 l0.9646097183227539,0.4275680065155029 0.6161644458770752,0.1602260112762451 l0.6422629833221436,-0.2775139808654785 0.908588981628418,-0.21587042808532714 l0.37350807189941404,-0.669161605834961 0.25052585601806643,-1.0701284408569336 l0.1558195471763611,-1.2154568672180175 -0.28815696239471433,-0.8781270027160645 l-0.6868030548095703,-0.662912130355835 -1.1698585510253907,-0.7140909194946289 l-0.6572217464447021,-0.10929269790649414 -0.7001550674438477,-0.277994441986084 l0.46765666007995604,0.21735787391662598 0.42076973915100097,-0.004655293747782707 l0.4162281036376953,-0.12288416624069214 1.41314640045166,-0.5548579692840576 l2.1962554931640623,-0.3515011310577393 1.8509429931640624,-0.9542695045471191 l2.2843097686767577,-0.9121829032897949 1.9195854187011718,-1.4495320320129395 l1.4985966682434082,-1.2828797340393066 0.7717927932739258,-1.0109979629516601 l0.09320353865623474,-0.39294335842132566 0.279323148727417,-0.13893864154815674 l-0.6690679550170898,0.17844028472900392 -1.6195995330810546,0.9561203956604004 l-1.6605255126953125,2.6398109436035155 -2.4491519927978516,3.0043563842773438 l-0.9285442352294921,3.375872039794922 -0.6156287670135498,2.9843053817749023 l-0.04743840992450714,1.96995849609375 0.43947997093200686,1.0624465942382812 l0.6609235763549804,0.41149749755859377 0.49338383674621583,-0.2648298740386963 m12.071017456054687,-3.799650955200195 l-0.7135136604309082,1.6925935745239258 -0.8027865409851074,1.6014678955078125 l0.3905890464782715,1.8554603576660156 -0.5161787986755371,0.8330705642700196 l0.11476118564605713,0.08437149524688721 -0.010537759214639664,-0.01965969055891037 l0.05850521326065063,-0.867800521850586 -0.11279419660568238,-1.4496426582336426 l0.10020849704742432,-2.2853668212890623 0.27347412109375,-2.530492973327637 l1.6209514617919922,-2.409867286682129 2.1980403900146483,-1.8372642517089843 l1.9072101593017579,-1.9636682510375976 1.8809326171875,-0.826565170288086 l1.3184377670288085,-0.5498805999755859 m11.285366821289063,2.578667640686035 l1.788456344604492,-1.355031967163086 3.3718441009521483,-2.2936546325683596 l2.8118295669555664,-2.0741634368896484 3.400030517578125,-2.001364898681641 l2.871860122680664,-2.3029945373535154 1.4256656646728516,-1.798695182800293 l1.0833475112915039,-1.181501865386963 0.3276993274688721,-0.25599255561828616 l0.05209123492240906,0.1438469409942627 -0.3127492666244507,0.5650615692138672 l-1.0242076873779298,2.204233169555664 -1.9351898193359376,3.5450584411621096 l-1.5966007232666015,4.270038604736328 -1.3518030166625976,4.110225677490234 l-1.0332642555236817,3.6929672241210936 -0.5622015953063965,3.2339405059814452 l-0.9458799362182617,1.6428600311279298 -0.13601267337799072,1.5539351463317872 l-0.4213106155395508,0.048114699125289914 -0.19225738048553467,-0.31493434906005857 m-1.3985699653625487,-7.780886840820313 l-0.4841559410095215,-0.1682412028312683 0.6768476963043213,0.2684685707092285 l0.21189472675323487,-0.082895827293396 1.5973559379577638,-0.11035103797912597 l2.61568546295166,-0.36519765853881836 2.448048400878906,-0.551063060760498 l2.2984619140625,-0.5064347267150879 1.0696593284606934,-0.507469367980957 l-0.1186708927154541,0.08651664853096008 0.40137147903442383,0.17084109783172607 l-0.9666580200195313,0.613370943069458 -1.2078274726867675,1.7207969665527343 l-0.7973968982696533,1.4545699119567872 -0.31320805549621583,1.4647911071777344 l0.007527514547109604,0.8635904312133789 0.12108440399169922,0.7096169471740723 l0.04104092419147491,0.012804768979549408 0.16803513765335082,-0.4260889530181885 l-0.21796534061431885,-1.7037786483764648 0.45975337028503416,-2.1989137649536135 m0.9597910881042481,-15.982878112792969 l-0.15162676572799683,-1.9490701675415039 -0.03293074667453766,-1.0069561004638672 l-0.48758511543273925,-0.49844017028808596 -0.046247833967208864,0.19111018180847167 l0.23556106090545653,0.4024824619293213 0.2914342641830444,1.211000633239746 l0.4799063205718994,1.0987759590148927 m18.762330627441408,13.679074096679688 l0.09056187868118286,-0.04198440611362457 -0.6228583335876465,-0.38956191539764407 l-1.4841253280639648,-0.6744266033172608 -2.0219533920288084,-0.1405271291732788 l-2.8413932800292967,-0.23128609657287597 -2.7220947265625,0.45891571044921875 l-2.7907209396362305,0.9511640548706055 -2.2714445114135744,1.2169927597045898 l-0.9491194725036621,1.4403901100158691 0.20917856693267822,1.3386520385742187 l1.6677730560302735,1.2106346130371093 2.4932601928710936,0.3699641227722168 l3.141386795043945,-0.8075661659240723 4.338089370727539,-0.9203897476196289 l4.031631088256836,-1.2456077575683593 2.3718425750732424,-1.3763943672180177 l1.4650031089782716,-1.0734320640563966 0.10393972396850586,-0.10007174015045166 l-0.3158185720443726,0.32815468311309814 -1.8677499771118165,0.9739304542541504 l-1.613698959350586,1.6761909484863282 -1.3868794441223145,1.5758971214294433 l-0.05233426690101624,1.387369728088379 0.4394479274749756,1.0877721786499024 l0.8336404800415039,0.5484403610229492 1.972855567932129,-0.012533655762672425 l2.2017372131347654,-0.9415116310119629 3.568144607543945,-1.352957820892334 m9.12598876953125,-15.993923950195313 l0.5481768608093261,-0.03387145698070526 -0.46536927223205565,0.34964666366577146 l-0.01566082090139389,1.4550543785095216 -0.9184814453125,2.402466583251953 l-1.0838147163391114,2.9015151977539064 -1.6175176620483398,3.210514450073242 l-1.064027976989746,3.4108116149902346 -1.4750085830688477,2.468162727355957 l-0.6743427276611328,1.6764823913574218 -0.8731935501098633,0.1613534212112427 l-0.3001692771911621,-0.41400914192199706 0.1873982071876526,-1.5546762466430664 l-0.2171156406402588,-2.031309127807617 0.2847288131713867,-2.6430595397949217 l0.5576037883758544,-2.3057374954223633 0.17934668064117432,-2.2040205001831055 l0.3753629684448242,-1.5871566772460937 0.3700763702392578,-0.3433198928833008 l-0.4555694580078125,-0.22391145229339598 0.7903511047363281,0.2594492435455322 l1.4186872482299804,0.856478214263916 1.671700668334961,0.6604955196380615 l2.7250980377197265,0.7102373123168946 2.8786376953125,-0.2287067651748657 l3.7976844787597654,-0.6537822723388672 4.0808063507080075,-1.3006434440612793 l4.14920654296875,-2.0145570755004885 4.071071624755859,-1.9933353424072267 l3.2302242279052735,-2.8912097930908205 2.7179067611694334,-2.2298980712890626 l1.492148208618164,-1.6645954132080079 -0.12607960700988768,-0.9049594879150391 l-0.5799470901489258,-0.5204217433929443 -0.6372611045837402,-0.3047324657440186 l-1.497495460510254,0.4637495994567871 -2.835445594787598,0.9347210884094238 l-2.6705114364624025,1.714033317565918 -3.0060447692871093,1.9832971572875977 l-1.6923667907714843,2.8379478454589844 -1.3775138854980469,2.5865062713623046 l-0.44948620796203614,3.0361103057861327 0.2837396144866943,2.8889562606811525 l0.22761504650115966,2.5325576782226564 0.9480362892150879,1.6502992630004882 l1.3494559288024903,1.1074191093444825 1.3398933410644531,0.756197738647461 l0.3435523509979248,0.25375003814697267 0.13681925535202027,-0.29231629371643064 m-8.551026916503906,-1.4964665412902831 l0.05039722919464111,0.18851219415664672 1.3231281280517577,0.3047184944152832 l2.3315147399902343,-0.5059941291809082 3.471953582763672,-0.5560461044311523 l4.314504623413086,-0.9039289474487304 4.283498764038086,-1.3988699913024902 l4.583427429199219,-1.0806798934936523 3.784478759765625,-1.2638440132141113 l2.4026264190673827,-1.1252366065979005 0.89364652633667,-0.48006606101989746 l-0.878085994720459,-0.2796776533126831 -2.57003231048584,-0.021112772822380065 l-3.7408077239990236,0.9422332763671875 -3.4566699981689455,1.244879913330078 l-2.478986358642578,1.8937349319458008 -1.358766746520996,1.3640071868896484 l-0.3472548723220825,1.259493350982666 0.4768787384033203,0.6968297004699707 l1.6871561050415038,0.10676459074020386 2.4622730255126952,-0.6443238258361816 l3.1315633773803713,-1.0431873321533203 2.3997806549072265,-1.657533836364746 l1.534726333618164,-1.1839776992797852 -0.481916618347168,-0.5028472423553467 l0.011000805348157883,0.019686681032180787 -0.22829079627990723,0.4383500099182129 l-0.5011493682861328,1.2675151824951172 -0.23463871479034423,1.1068475723266602 l0.2664841413497925,0.9380465507507324 0.6812644958496094,0.32272653579711913 l1.7733861923217773,-0.08714087009429931 2.103200912475586,-1.0484556198120116 l2.4489934921264647,-1.5606592178344727 1.9871707916259767,-1.3914945602416993 l1.5076629638671875,-1.237501621246338 0.4355158805847168,0.0009510279633104801 l-0.04148112237453461,0.049739298224449155 0.034408974647521975,0.9333192825317382 l-0.7182817459106445,2.0033027648925783 -0.470399284362793,1.2805442810058594 l0.14491629600524902,0.8280044555664062 -0.1072725534439087,0.2353731155395508 l0.4780832290649414,-0.10111792087554931 0.7735847949981689,-0.31348109245300293 l1.3718361854553223,-1.100080680847168 1.7547691345214844,-1.8831912994384765 l2.399431037902832,-1.6283153533935546 1.7281379699707031,-0.6223175525665283 l0.6811894416809082,-0.26784000396728513 0.2962683439254761,0.2583461761474609 l-0.24248905181884767,0.37972660064697267 0.15564582347869874,1.2113944053649903 l0.13731683492660524,1.2728272438049317 0.7745923042297364,0.7850401878356934 l1.4994333267211915,0.4624023914337158 2.5789127349853516,-0.4645589828491211 l3.740810775756836,-0.5838236331939697 2.769128608703613,-0.9400040626525878 l2.1453273773193358,-0.5956249713897706 0.6298715591430664,-0.25166079998016355 l0.12031717300415039,-0.01903809905052185 -0.5691431045532227,0.028823405504226685 l-0.7417984962463379,0.8610861778259278 -0.7609984874725342,1.2646686553955078 l-0.42424349784851073,1.420302391052246 0.21281652450561522,1.4913507461547852 l1.0246672630310059,0.9693080902099609 1.8812667846679687,0.5500082969665527 l3.352756881713867,-0.14386453628540039 3.100901412963867,-1.2258180618286132 l3.1165534973144533,-2.2085071563720704 2.5120262145996093,-3.2959632873535156 l2.382725143432617,-3.408094024658203 1.516969585418701,-4.186125946044922 l-0.02768353223800659,-3.5976306915283205 -0.327616024017334,-2.5099700927734374 l-1.3635979652404786,-2.0215049743652345 -1.4959964752197266,-0.7924328804016113 l-1.9974864959716796,0.6310276508331298 -2.717827033996582,2.32467098236084 l-2.2475778579711916,3.22451171875 -1.5780558586120605,4.091850662231446 l0.13190028667449952,4.0558208465576175 0.5236325263977051,3.685011291503906 l2.268503952026367,3.369720458984375 2.374165725708008,2.515822982788086 l2.4850677490234374,1.4832558631896973 3.4895599365234373,0.8142589569091797 l3.0457508087158205,-0.44153318405151365 3.050714302062988,-1.1661121368408203 l2.5510231018066407,-2.6537389755249023 1.476657009124756,-2.733674240112305 l0.7842092514038086,-2.224951171875 -0.6480916023254395,-1.8745004653930664 l-1.312609577178955,-1.2863856315612794 -1.8401533126831056,-0.3535501003265381 l-2.1240537643432615,0.4725632667541504 -1.5180408477783203,1.8473495483398437 l-0.03275706768035889,2.1483428955078123 1.660668182373047,2.3818540573120117 l2.7063417434692383,2.221163749694824 3.523628997802734,1.6443283081054687 l3.0958024978637697,1.1248729705810547 m57.15336303710937,-27.755764770507813 l-0.5057516098022461,-0.701979684829712 -0.7247164249420166,-0.6327908039093018 l-1.048716926574707,-0.14226298332214354 -2.515060234069824,0.2001856803894043 l-3.308123779296875,0.7980990409851074 -3.8078948974609377,1.5266680717468262 l-3.62174072265625,1.7782142639160157 -2.952469825744629,1.9391595840454101 l-1.5107465744018556,1.7896717071533204 -1.0974787712097167,1.5855895042419434 l0.7026589393615723,1.634998893737793 2.4348865509033204,1.7785655975341796 l3.3494728088378904,1.2124599456787108 3.5494903564453124,1.358143424987793 l2.5718584060668945,0.7764957427978516 2.0472543716430662,1.0239763259887695 l0.6279103279113769,0.6130843162536621 -0.6532227993011475,0.6607956886291504 " fill="none" stroke="black" stroke-width="1" /></svg>